<?xml version="1.0" standalone="no"?>
<!DOCTYPE svg PUBLIC "-//W3C//DTD SVG 20010904//EN"
 "http://www.w3.org/TR/2001/REC-SVG-20010904/DTD/svg10.dtd">
<svg version="1.0" xmlns="http://www.w3.org/2000/svg"
 width="509.000000pt" height="490.000000pt" viewBox="0 0 509.000000 490.000000"
 preserveAspectRatio="xMidYMid meet">

<g transform="translate(0.000000,490.000000) scale(0.100000,-0.100000)"
fill="#000000" stroke="none">
<path d="M2314 4365 c-98 -17 -282 -77 -344 -113 -128 -72 -278 -211 -372
-343 -52 -73 -107 -175 -119 -223 -4 -17 -18 -65 -30 -106 -28 -98 -37 -314
-17 -412 8 -38 13 -68 11 -68 -2 0 -53 11 -113 25 -60 13 -147 29 -194 35 -77
11 -89 10 -123 -7 -20 -10 -46 -31 -57 -46 -21 -28 -21 -35 -21 -915 0 -830 1
-889 18 -919 36 -66 44 -68 317 -69 462 -2 852 -74 1172 -218 80 -36 142 -42
214 -21 33 9 69 23 81 30 41 27 236 92 383 129 228 57 424 78 765 79 234 2
264 4 289 20 58 38 56 8 56 963 0 992 5 930 -78 966 -40 18 -52 19 -126 8 -44
-6 -148 -27 -229 -47 -81 -19 -154 -32 -162 -29 -12 4 -12 11 -2 38 8 22 12
101 12 233 0 180 -2 208 -24 285 -13 47 -37 110 -54 140 -45 82 -148 179 -234
220 -40 20 -78 46 -86 60 -27 45 -132 144 -189 178 -65 39 -159 75 -283 109
-113 32 -334 40 -461 18z m451 -150 c171 -50 309 -144 403 -273 13 -18 31 -32
39 -32 37 0 126 -56 175 -109 95 -104 137 -236 138 -438 0 -121 -18 -255 -33
-250 -6 2 -17 34 -24 71 -6 37 -17 74 -24 82 -7 8 -53 36 -102 61 -108 56
-190 134 -231 220 -64 135 -58 128 -97 131 -34 3 -39 -1 -74 -49 -89 -124
-194 -208 -310 -250 -61 -21 -255 -40 -255 -24 0 5 18 24 40 43 76 64 86 129
26 162 -30 15 -52 8 -96 -31 -40 -35 -168 -102 -250 -131 -79 -27 -178 -47
-276 -55 -116 -8 -127 -18 -148 -129 -9 -48 -17 -88 -18 -89 -2 -1 -17 -5 -34
-8 -31 -6 -32 -4 -45 41 -9 30 -14 99 -14 192 0 139 2 149 34 244 95 273 321
507 578 597 187 66 425 75 598 24z m253 -787 c27 -39 103 -118 160 -167 13
-11 52 -34 87 -53 61 -31 65 -35 72 -78 5 -25 7 -115 7 -200 -2 -220 -37 -339
-147 -507 -72 -109 -152 -175 -306 -253 -121 -60 -206 -83 -321 -83 -123 0
-198 17 -315 72 -239 112 -362 249 -440 491 -25 75 -29 105 -33 251 -3 105 0
193 8 238 l12 71 43 0 c68 0 213 29 305 60 l85 29 23 -24 c46 -50 79 -60 197
-60 85 0 126 5 180 22 96 31 216 103 284 172 31 32 59 58 63 59 4 1 20 -17 36
-40z m1070 -1004 l2 -609 -95 3 c-255 10 -590 -59 -879 -180 -187 -78 -286
-131 -428 -229 -15 -11 -30 -19 -33 -19 -3 0 -5 125 -5 279 l0 279 38 6 c111
20 295 100 396 173 126 91 238 219 300 341 26 52 26 52 74 52 74 0 136 26 198
83 63 57 91 105 105 180 9 49 2 122 -16 168 -5 14 11 21 102 43 115 27 212 45
228 41 6 -1 11 -215 13 -611z m-2790 572 c50 -12 94 -25 97 -27 2 -3 -2 -27
-10 -54 -20 -65 -19 -111 5 -186 36 -117 159 -209 279 -209 43 0 51 -3 57 -22
26 -88 150 -245 261 -334 122 -98 342 -194 478 -210 l55 -7 0 -278 c0 -154 -2
-279 -4 -279 -3 0 -31 17 -63 38 -105 69 -127 81 -258 146 -317 157 -639 237
-957 240 l-168 1 0 609 0 609 68 -7 c37 -3 109 -17 160 -30z m342 -93 c1 -49
7 -124 15 -168 8 -43 12 -81 10 -83 -10 -11 -71 13 -101 40 -47 42 -65 80 -66
138 0 58 29 112 76 141 59 36 66 30 66 -68z m1924 68 c46 -30 66 -70 66 -129
0 -58 -23 -113 -62 -149 -22 -20 -104 -51 -112 -42 -2 2 2 38 10 79 7 41 13
117 14 168 l0 92 28 0 c15 0 40 -9 56 -19z m-2194 -1301 c132 -14 321 -50 314
-61 -3 -5 2 -6 10 -3 17 6 155 -34 265 -77 228 -91 392 -184 496 -279 68 -64
95 -80 128 -80 38 0 75 21 117 65 80 84 181 147 376 235 211 95 396 153 594
186 100 17 345 30 383 20 l27 -6 0 -163 0 -162 -102 4 c-143 5 -489 -16 -638
-39 -238 -36 -481 -105 -628 -179 -102 -51 -148 -54 -236 -12 -323 152 -756
231 -1269 231 l-138 0 2 160 1 159 56 4 c115 7 149 6 242 -3z"/>
<path d="M2127 3014 c-51 -51 -49 -160 3 -206 39 -36 62 -35 102 1 31 28 33
33 33 101 0 68 -2 73 -33 101 -40 36 -71 37 -105 3z"/>
<path d="M2897 3029 c-46 -27 -64 -137 -33 -197 30 -59 82 -68 126 -24 89 89
9 280 -93 221z"/>
<path d="M2284 2575 c-32 -49 16 -125 111 -177 58 -32 64 -33 170 -33 103 0
113 2 163 29 60 34 118 93 128 131 4 16 0 34 -10 50 -23 36 -63 33 -101 -7
-90 -95 -270 -95 -359 1 -37 39 -78 42 -102 6z"/>
</g>
</svg>
