<svg width="200" height="200" viewBox="0 0 200 200" fill="none" xmlns="http://www.w3.org/2000/svg">
  <rect width="200" height="200" rx="48" fill="#F7F8FF" />
  <path d="M55 70C55 60.6112 62.6112 53 72 53H128C137.389 53 145 60.6112 145 70V136C145 142.627 139.627 148 133 148H67C60.3726 148 55 142.627 55 136V70Z" fill="#FFFFFF" stroke="#4B33B4" stroke-width="6" />
  <path d="M55 132C55 121.507 63.5074 113 74 113H98C100.209 113 102 114.791 102 117V148H67C60.3726 148 55 142.627 55 136V132Z" fill="#4B9DFE" />
  <path d="M145 132V136C145 142.627 139.627 148 133 148H102V117C102 114.791 103.791 113 106 113H126C136.493 113 145 121.507 145 132Z" fill="#2F75FF" />
  <circle cx="100" cy="88" r="34" fill="#FFD09B" stroke="#4B33B4" stroke-width="6" />
  <path d="M72 86C72 75.5066 80.5066 67 91 67H109C119.493 67 128 75.5066 128 86V104C128 110.627 122.627 116 116 116H84C77.3726 116 72 110.627 72 104V86Z" fill="#FFD09B" />
  <path d="M70.5 82C70.5 69.1929 80.6929 59 93.5 59H106.5C119.307 59 129.5 69.1929 129.5 82V83.5C129.5 85.433 127.933 87 126 87C124.067 87 122.5 85.433 122.5 83.5V79.5C122.5 70.9396 115.56 64 107 64H93C84.4396 64 77.5 70.9396 77.5 79.5V83.5C77.5 85.433 75.933 87 74 87C72.067 87 70.5 85.433 70.5 83.5V82Z" fill="#F89B34" />
  <circle cx="86.5" cy="90.5" r="4.5" fill="#4B33B4" />
  <circle cx="113.5" cy="90.5" r="4.5" fill="#4B33B4" />
  <path d="M92.5 103C92.5 100.515 94.5154 98.5 97 98.5H103C105.485 98.5 107.5 100.515 107.5 103C107.5 103.828 106.828 104.5 106 104.5H94C93.1716 104.5 92.5 103.828 92.5 103Z" fill="#4B33B4" />
</svg>

